# xmcd CD database file
#
# Track frame offsets:
#	150
#	16228
#	30390
#	48645
#	63745
#	78525
#	92608
#	104693
#	115245
#	147145
#
# Disc length: 2053 seconds
#
# Revision: 2
# Processed by: cddbd v1.5.2PL0 Copyright (c) Steve Scherf et al.
# Submitted via: CDex 1.70beta2
#
DISCID=8308030a
DTITLE=はっぴいえんど - HAPPY END
DYEAR=1973
DGENRE=Rock
TTITLE0=風来坊
TTITLE1=氷雨月のスケッチ
TTITLE2=明日あたりはきっと春
TTITLE3=無風状態
TTITLE4=さよなら通り３番地
TTITLE5=相合傘
TTITLE6=田舎道
TTITLE7=外はいい天気
TTITLE8=さよならアメリカ さよならニッポン
TTITLE9=はっぴいえんど記念館　#3　細野晴臣編
EXTD=YEAR: 1973
EXTT0=
EXTT1=
EXTT2=
EXTT3=
EXTT4=
EXTT5=
EXTT6=
EXTT7=
EXTT8=
EXTT9=
PLAYORDER=
